<svg xmlns="http://www.w3.org/2000/svg" xmlns:xlink="http://www.w3.org/1999/xlink" width="300" zoomAndPan="magnify" viewBox="0 0 224.87999 225" height="300" preserveAspectRatio="xMidYMid meet" version="1.0"><defs><g/><clipPath id="3f351e1925"><path d="M 0 0.0585938 L 224.761719 0.0585938 L 224.761719 224.9375 L 0 224.9375 Z M 0 0.0585938 " clip-rule="nonzero"/></clipPath><clipPath id="3f57e4da52"><rect x="0" width="108" y="0" height="190"/></clipPath></defs><g clip-path="url(#3f351e1925)"><path fill="#ffffff" d="M 0 0.0585938 L 224.878906 0.0585938 L 224.878906 224.941406 L 0 224.941406 Z M 0 0.0585938 " fill-opacity="1" fill-rule="nonzero"/><path fill="#1e293b" d="M 0 0.0585938 L 224.878906 0.0585938 L 224.878906 224.941406 L 0 224.941406 Z M 0 0.0585938 " fill-opacity="1" fill-rule="nonzero"/></g><g transform="matrix(1, 0, 0, 1, 57, 17)"><g clip-path="url(#3f57e4da52)"><g fill="#2563eb" fill-opacity="1"><g transform="translate(1.106992, 142.189413)"><g><path d="M 58.484375 3.78125 C 48.390625 3.78125 39.332031 1.507812 31.3125 -3.03125 C 23.300781 -7.570312 17.023438 -13.816406 12.484375 -21.765625 C 7.941406 -29.710938 5.671875 -38.734375 5.671875 -48.828125 C 5.671875 -58.671875 7.753906 -67.375 11.921875 -74.9375 C 16.085938 -82.507812 21.859375 -88.472656 29.234375 -92.828125 C 36.617188 -97.179688 45.039062 -99.359375 54.5 -99.359375 C 63.84375 -99.359375 71.984375 -97.179688 78.921875 -92.828125 C 85.859375 -88.472656 91.28125 -82.476562 95.1875 -74.84375 C 99.101562 -67.21875 101.125 -58.484375 101.25 -48.640625 C 101.25 -47.753906 101.25 -46.835938 101.25 -45.890625 C 101.25 -44.941406 101.1875 -43.960938 101.0625 -42.953125 L 20.625 -42.953125 C 21.382812 -36.398438 23.46875 -30.566406 26.875 -25.453125 C 30.28125 -20.347656 34.726562 -16.375 40.21875 -13.53125 C 45.707031 -10.6875 51.859375 -9.265625 58.671875 -9.265625 C 66.109375 -9.265625 72.789062 -11 78.71875 -14.46875 C 84.65625 -17.945312 88.945312 -22.269531 91.59375 -27.4375 L 104.09375 -22.328125 C 102.070312 -17.285156 98.820312 -12.773438 94.34375 -8.796875 C 89.863281 -4.828125 84.5625 -1.738281 78.4375 0.46875 C 72.320312 2.675781 65.671875 3.78125 58.484375 3.78125 Z M 20.8125 -55.640625 L 85.921875 -55.640625 C 85.035156 -65.359375 81.722656 -72.863281 75.984375 -78.15625 C 70.242188 -83.457031 63.019531 -86.109375 54.3125 -86.109375 C 45.476562 -86.109375 38.035156 -83.300781 31.984375 -77.6875 C 25.929688 -72.070312 22.207031 -64.722656 20.8125 -55.640625 Z M 20.8125 -55.640625 "/></g></g></g></g></g></svg>